<svg width="31" height="26" viewBox="0 0 31 26" fill="none" xmlns="http://www.w3.org/2000/svg">
<path d="M10.8239 12.3505C10.8239 10.3505 16.4905 4.18381 19.3239 1.35047C22.1239 0.550475 22.4905 2.68381 22.3239 3.85047C22.3239 4.25047 20.6572 7.01714 19.8239 8.35047C19.4239 9.15048 20.3239 10.0171 20.8239 10.3505H26.8239C28.0239 10.3505 28.3239 11.3505 28.3239 11.8505V13.8505C29.5239 15.0505 29.8239 16.6838 29.8239 17.3505C26.6239 23.3505 24.1572 25.1838 23.3239 25.3505H15.8239C12.6239 25.3505 11.1572 22.0171 10.8239 20.3505V12.3505Z" fill="white" fill-opacity="0.5" stroke="#010101"/>
<path d="M0.823853 11.8506C0.823853 11.0506 1.82385 10.5173 2.32385 10.3506H6.82385C8.02385 10.3506 8.32385 11.3506 8.32385 11.8506L8.49876 23.6269C8.63869 25.0479 7.44046 25.3681 6.82385 25.3506H2.32385C1.52385 25.3506 0.990519 24.2014 0.823853 23.6269V11.8506Z" fill="white" fill-opacity="0.5" stroke="#010101"/>
</svg>
