<svg width="44" height="44" viewBox="0 0 44 44" fill="none" xmlns="http://www.w3.org/2000/svg">
<path d="M16 2.2V41.8H28V2.2H16ZM14 2.2H5C3.34315 2.2 2 3.67746 2 5.5V38.5C2 40.3225 3.34315 41.8 5 41.8H14V2.2ZM30 2.2V41.8H39C40.6569 41.8 42 40.3225 42 38.5V5.5C42 3.67746 40.6569 2.2 39 2.2H30ZM0 5.5C0 2.46243 2.23858 0 5 0H39C41.7614 0 44 2.46243 44 5.5V38.5C44 41.5376 41.7614 44 39 44H5C2.23858 44 0 41.5376 0 38.5V5.5ZM6 8.8H10C11.1046 8.8 12 9.78497 12 11V13.2C12 14.415 11.1046 15.4 10 15.4H6C4.89543 15.4 4 14.415 4 13.2V11C4 9.78497 4.89543 8.8 6 8.8ZM6 17.6H10C11.1046 17.6 12 18.585 12 19.8V22C12 23.215 11.1046 24.2 10 24.2H6C4.89543 24.2 4 23.215 4 22V19.8C4 18.585 4.89543 17.6 6 17.6ZM20 8.8H24C25.1046 8.8 26 9.78497 26 11V13.2C26 14.415 25.1046 15.4 24 15.4H20C18.8954 15.4 18 14.415 18 13.2V11C18 9.78497 18.8954 8.8 20 8.8ZM34 8.8H38C39.1046 8.8 40 9.78497 40 11V13.2C40 14.415 39.1046 15.4 38 15.4H34C32.8954 15.4 32 14.415 32 13.2V11C32 9.78497 32.8954 8.8 34 8.8ZM34 17.6H38C39.1046 17.6 40 18.585 40 19.8V22C40 23.215 39.1046 24.2 38 24.2H34C32.8954 24.2 32 23.215 32 22V19.8C32 18.585 32.8954 17.6 34 17.6ZM34 26.4H38C39.1046 26.4 40 27.385 40 28.6V30.8C40 32.015 39.1046 33 38 33H34C32.8954 33 32 32.015 32 30.8V28.6C32 27.385 32.8954 26.4 34 26.4ZM6 11V13.2H10V11H6ZM6 19.8V22H10V19.8H6ZM20 11V13.2H24V11H20ZM34 11V13.2H38V11H34ZM34 19.8V22H38V19.8H34ZM34 28.6V30.8H38V28.6H34ZM5 6.6C4.44772 6.6 4 6.10751 4 5.5C4 4.89249 4.44772 4.4 5 4.4H11C11.5523 4.4 12 4.89249 12 5.5C12 6.10751 11.5523 6.6 11 6.6H5ZM19 6.6C18.4477 6.6 18 6.10751 18 5.5C18 4.89249 18.4477 4.4 19 4.4H25C25.5523 4.4 26 4.89249 26 5.5C26 6.10751 25.5523 6.6 25 6.6H19ZM33 6.6C32.4477 6.6 32 6.10751 32 5.5C32 4.89249 32.4477 4.4 33 4.4H39C39.5523 4.4 40 4.89249 40 5.5C40 6.10751 39.5523 6.6 39 6.6H33Z" fill="white"/>
</svg>
