<svg width="19" height="19" viewBox="0 0 19 19" fill="none" xmlns="http://www.w3.org/2000/svg">
<path d="M17.452 0.475132C17.1886 0.481358 16.9384 0.591397 16.7559 0.781279L9.47461 8.06252L2.19337 0.781279C2.10033 0.685639 1.98906 0.609617 1.86614 0.557703C1.74323 0.50579 1.61115 0.479039 1.47772 0.479031C1.27911 0.479084 1.08502 0.538365 0.920276 0.649301C0.755532 0.760236 0.627616 0.917782 0.552879 1.1018C0.478143 1.28581 0.459984 1.48794 0.500722 1.68233C0.54146 1.87672 0.639246 2.05454 0.781577 2.19307L8.06282 9.47431L0.781577 16.7556C0.685757 16.8475 0.609257 16.9577 0.556556 17.0797C0.503855 17.2016 0.476013 17.3328 0.474661 17.4657C0.473309 17.5985 0.498475 17.7302 0.548683 17.8532C0.598892 17.9762 0.673132 18.0879 0.76706 18.1819C0.860988 18.2758 0.972714 18.35 1.09569 18.4002C1.21867 18.4504 1.35044 18.4756 1.48326 18.4743C1.61609 18.4729 1.74731 18.4451 1.86924 18.3924C1.99118 18.3397 2.10137 18.2632 2.19337 18.1673L9.47461 10.8861L16.7559 18.1673C16.8478 18.2632 16.958 18.3397 17.08 18.3924C17.2019 18.4451 17.3331 18.4729 17.466 18.4743C17.5988 18.4756 17.7305 18.4504 17.8535 18.4002C17.9765 18.35 18.0882 18.2758 18.1822 18.1819C18.2761 18.0879 18.3503 17.9762 18.4005 17.8532C18.4507 17.7302 18.4759 17.5985 18.4746 17.4657C18.4732 17.3328 18.4454 17.2016 18.3927 17.0797C18.34 16.9577 18.2635 16.8475 18.1676 16.7556L10.8864 9.47431L18.1676 2.19307C18.3126 2.05364 18.4121 1.87367 18.4531 1.67673C18.4941 1.47979 18.4746 1.27507 18.3973 1.08938C18.3199 0.903696 18.1883 0.745702 18.0196 0.636096C17.8509 0.526491 17.6531 0.470386 17.452 0.475132Z" fill="#4C4F57"/>
</svg>
