<svg width="40" height="35" viewBox="0 0 40 35" fill="none" xmlns="http://www.w3.org/2000/svg">
<path d="M17.9601 19.4283L17.9776 19.4242V19.4283H34.5492V19.4233L34.5675 19.4283L38.1425 6.09084H14.3867L17.9601 19.4283Z" fill="white"/>
<path d="M15.5383 22.7442L9.34167 0H0V3.36917H6.805L12.9917 26.0775L13.0117 26.0717V26.0775H40V22.7442H15.5383Z" fill="white"/>
<path d="M34.8092 34.4108C36.6501 34.4108 38.1425 32.9185 38.1425 31.0775C38.1425 29.2365 36.6501 27.7442 34.8092 27.7442C32.9682 27.7442 31.4758 29.2365 31.4758 31.0775C31.4758 32.9185 32.9682 34.4108 34.8092 34.4108Z" fill="white"/>
<path d="M16.3451 34.4108C18.186 34.4108 19.6784 32.9185 19.6784 31.0775C19.6784 29.2365 18.186 27.7442 16.3451 27.7442C14.5041 27.7442 13.0117 29.2365 13.0117 31.0775C13.0117 32.9185 14.5041 34.4108 16.3451 34.4108Z" fill="white"/>
</svg>
