<svg width="40" height="40" viewBox="0 0 40 40" fill="none" xmlns="http://www.w3.org/2000/svg">
<path d="M16.1123 33.2441H36" stroke="white" stroke-width="3" stroke-miterlimit="2.6131" stroke-linecap="round" stroke-linejoin="round"/>
<path d="M16.1123 20H36" stroke="white" stroke-width="3" stroke-miterlimit="2.6131" stroke-linecap="round" stroke-linejoin="round"/>
<path d="M16.1123 6.75601H36" stroke="white" stroke-width="3" stroke-miterlimit="2.6131" stroke-linecap="round" stroke-linejoin="round"/>
<path d="M10.3797 9.48048C10.3797 9.73752 10.1715 9.94433 9.91455 9.94433" stroke="white" stroke-width="3" stroke-miterlimit="2.6131" stroke-linecap="round" stroke-linejoin="round"/>
<path d="M9.91453 9.9444H4.46533" stroke="white" stroke-width="3" stroke-miterlimit="2.6131" stroke-linecap="round" stroke-linejoin="round"/>
<path d="M4.4652 9.9444C4.20816 9.9444 4 9.7376 4 9.48056" stroke="white" stroke-width="3" stroke-miterlimit="2.6131" stroke-linecap="round" stroke-linejoin="round"/>
<path d="M4 9.48046V4.03558" stroke="white" stroke-width="3" stroke-miterlimit="2.6131" stroke-linecap="round" stroke-linejoin="round"/>
<path d="M4 4.0356C4 3.77712 4.20824 3.56752 4.4652 3.56752" stroke="white" stroke-width="3" stroke-miterlimit="2.6131" stroke-linecap="round" stroke-linejoin="round"/>
<path d="M4.46533 3.5676H9.91453" stroke="white" stroke-width="3" stroke-miterlimit="2.6131" stroke-linecap="round" stroke-linejoin="round"/>
<path d="M9.91455 3.5676C10.1716 3.5676 10.3797 3.7772 10.3797 4.03568" stroke="white" stroke-width="3" stroke-miterlimit="2.6131" stroke-linecap="round" stroke-linejoin="round"/>
<path d="M10.3794 4.03558V9.48046" stroke="white" stroke-width="3" stroke-miterlimit="2.6131" stroke-linecap="round" stroke-linejoin="round"/>
<path d="M10.3797 22.7259C10.3797 22.9843 10.1715 23.1898 9.91455 23.1898" stroke="white" stroke-width="3" stroke-miterlimit="2.6131" stroke-linecap="round" stroke-linejoin="round"/>
<path d="M9.91453 23.1898H4.46533" stroke="white" stroke-width="3" stroke-miterlimit="2.6131" stroke-linecap="round" stroke-linejoin="round"/>
<path d="M4.4652 23.1898C4.20816 23.1898 4 22.9846 4 22.7259" stroke="white" stroke-width="3" stroke-miterlimit="2.6131" stroke-linecap="round" stroke-linejoin="round"/>
<path d="M4 22.7259V17.2783" stroke="white" stroke-width="3" stroke-miterlimit="2.6131" stroke-linecap="round" stroke-linejoin="round"/>
<path d="M4 17.2783C4 17.0198 4.20824 16.8102 4.4652 16.8102" stroke="white" stroke-width="3" stroke-miterlimit="2.6131" stroke-linecap="round" stroke-linejoin="round"/>
<path d="M4.46533 16.8102H9.91453" stroke="white" stroke-width="3" stroke-miterlimit="2.6131" stroke-linecap="round" stroke-linejoin="round"/>
<path d="M9.91455 16.8102C10.1716 16.8102 10.3797 17.0198 10.3797 17.2783" stroke="white" stroke-width="3" stroke-miterlimit="2.6131" stroke-linecap="round" stroke-linejoin="round"/>
<path d="M10.3794 17.2783V22.7259" stroke="white" stroke-width="3" stroke-miterlimit="2.6131" stroke-linecap="round" stroke-linejoin="round"/>
<path d="M10.3797 35.9686C10.3797 36.2284 10.1715 36.4324 9.91455 36.4324" stroke="white" stroke-width="3" stroke-miterlimit="2.6131" stroke-linecap="round" stroke-linejoin="round"/>
<path d="M9.91453 36.4324H4.46533" stroke="white" stroke-width="3" stroke-miterlimit="2.6131" stroke-linecap="round" stroke-linejoin="round"/>
<path d="M4.4652 36.4324C4.20816 36.4324 4 36.2284 4 35.9686" stroke="white" stroke-width="3" stroke-miterlimit="2.6131" stroke-linecap="round" stroke-linejoin="round"/>
<path d="M4 35.9686V30.5222" stroke="white" stroke-width="3" stroke-miterlimit="2.6131" stroke-linecap="round" stroke-linejoin="round"/>
<path d="M4 30.5222C4 30.2652 4.20824 30.0556 4.4652 30.0556" stroke="white" stroke-width="3" stroke-miterlimit="2.6131" stroke-linecap="round" stroke-linejoin="round"/>
<path d="M4.46533 30.0556H9.91453" stroke="white" stroke-width="3" stroke-miterlimit="2.6131" stroke-linecap="round" stroke-linejoin="round"/>
<path d="M9.91455 30.0556C10.1716 30.0556 10.3797 30.2652 10.3797 30.5222" stroke="white" stroke-width="3" stroke-miterlimit="2.6131" stroke-linecap="round" stroke-linejoin="round"/>
<path d="M10.3794 30.5222V35.9686" stroke="white" stroke-width="3" stroke-miterlimit="2.6131" stroke-linecap="round" stroke-linejoin="round"/>
</svg>
