<svg width="44" height="44" viewBox="0 0 44 44" fill="none" xmlns="http://www.w3.org/2000/svg">
<path d="M16.4267 1.66211H4.10667C2.70264 1.66211 1.56445 2.8003 1.56445 4.20433V19.4577C1.56445 20.8617 2.70264 21.9999 4.10667 21.9999H16.4267C17.8307 21.9999 18.9689 20.8617 18.9689 19.4577V4.20433C18.9689 2.8003 17.8307 1.66211 16.4267 1.66211Z" stroke="white" stroke-width="3"/>
<path d="M39.8933 22H27.5733C26.1693 22 25.0311 23.1382 25.0311 24.5422V39.7956C25.0311 41.1996 26.1693 42.3378 27.5733 42.3378H39.8933C41.2974 42.3378 42.4356 41.1996 42.4356 39.7956V24.5422C42.4356 23.1382 41.2974 22 39.8933 22Z" stroke="white" stroke-width="3"/>
<path d="M39.8933 1.56445H27.5733C26.1693 1.56445 25.0311 2.70264 25.0311 4.10668V13.2978C25.0311 14.7018 26.1693 15.84 27.5733 15.84H39.8933C41.2974 15.84 42.4356 14.7018 42.4356 13.2978V4.10668C42.4356 2.70264 41.2974 1.56445 39.8933 1.56445Z" stroke="white" stroke-width="3"/>
<path d="M16.4267 28.1599H4.10667C2.70264 28.1599 1.56445 29.2981 1.56445 30.7021V39.8932C1.56445 41.2973 2.70264 42.4355 4.10667 42.4355H16.4267C17.8307 42.4355 18.9689 41.2973 18.9689 39.8932V30.7021C18.9689 29.2981 17.8307 28.1599 16.4267 28.1599Z" stroke="white" stroke-width="3"/>
</svg>
