<svg width="31" height="26" viewBox="0 0 31 26" fill="none" xmlns="http://www.w3.org/2000/svg">
<path d="M20 14.0006C20 16.0006 14.3333 22.1673 11.5 25.0006C8.7 25.8006 8.33333 23.6673 8.5 22.5006C8.5 22.1006 10.1667 19.3339 11 18.0006C11.4 17.2006 10.5 16.3339 10 16.0006H4C2.8 16.0006 2.5 15.0006 2.5 14.5006V12.5006C1.3 11.3006 1 9.66727 1 9.0006C4.2 3.0006 6.66667 1.16726 7.5 1.0006H15C18.2 1.0006 19.6667 4.33393 20 6.0006V14.0006Z" fill="#D91A00" stroke="#8E1100"/>
<path d="M30 14.5005C30 15.3005 29 15.8338 28.5 16.0005H24C22.8 16.0005 22.5 15.0005 22.5 14.5005L22.3251 2.72422C22.1852 1.3032 23.3834 0.982975 24 1.00049H28.5C29.3 1.00049 29.8333 2.14964 30 2.72422V14.5005Z" fill="#D91A00" stroke="#8E1100"/>
</svg>
