<svg width="18" height="17" viewBox="0 0 18 17" fill="none" xmlns="http://www.w3.org/2000/svg">
<path d="M17.0099 0.00102289C16.6967 0.0120779 16.4093 0.1779 16.2434 0.443215L7.37013 14.0185L1.62163 9.05122C1.37474 8.79511 1.00441 8.6993 0.663552 8.80617C0.324539 8.91119 0.072121 9.19861 0.0131621 9.54868C-0.0457968 9.90059 0.0960729 10.2543 0.383498 10.4662L6.95742 16.1558C7.16377 16.3308 7.43646 16.4082 7.70361 16.3695C7.97261 16.329 8.21029 16.176 8.35769 15.9494L17.8353 1.475C18.038 1.17836 18.0546 0.795126 17.8796 0.481906C17.7045 0.17053 17.3673 -0.0155592 17.0099 0.00102289Z" fill="#4C4F57"/>
</svg>
