<svg width="20" height="20" viewBox="0 0 20 20" fill="none" xmlns="http://www.w3.org/2000/svg">
<path d="M16.5742 7.47246H17.7286V17.8621C17.7286 18.1682 17.607 18.4619 17.3905 18.6784C17.174 18.8948 16.8804 19.0165 16.5742 19.0165H1.567C1.26083 19.0165 0.967206 18.8948 0.750714 18.6784C0.534222 18.4619 0.412598 18.1682 0.412598 17.8621V2.85486C0.412598 2.54869 0.534222 2.25506 0.750714 2.03857C0.967206 1.82208 1.26083 1.70046 1.567 1.70046H11.9566V2.85486H1.567V17.8621H16.5742V7.47246ZM18.883 3.09382L8.21115 13.7639L4.81375 14.6136L5.66512 11.2179L16.3353 0.546054C16.5517 0.329637 16.8453 0.208061 17.1514 0.208061C17.4575 0.208061 17.7511 0.329637 17.9676 0.546054L18.883 1.46149C19.0994 1.67798 19.221 1.97155 19.221 2.27766C19.221 2.58376 19.0994 2.87733 18.883 3.09382ZM18.0669 2.27766L17.1514 1.36222L6.70408 11.8095L6.39932 13.0297L7.61952 12.725L18.0669 2.27766Z" fill="#4C4F57" stroke="#4C4F57" stroke-width="0.2"/>
</svg>
