<svg width="31" height="26" viewBox="0 0 31 26" fill="none" xmlns="http://www.w3.org/2000/svg">
<path d="M11 12.1752C11 10.1752 16.6667 4.00851 19.5 1.17518C22.3 0.375182 22.6667 2.50852 22.5 3.67518C22.5 4.07518 20.8333 6.84185 20 8.17518C19.6 8.97518 20.5 9.84185 21 10.1752H27C28.2 10.1752 28.5 11.1752 28.5 11.6752V13.6752C29.7 14.8752 30 16.5085 30 17.1752C26.8 23.1752 24.3333 25.0085 23.5 25.1752H16C12.8 25.1752 11.3333 21.8418 11 20.1752V12.1752Z" fill="#00D916" stroke="#00790C"/>
<path d="M1 11.6753C1 10.8753 2 10.342 2.5 10.1753H7C8.2 10.1753 8.5 11.1753 8.5 11.6753L8.67491 23.4516C8.81484 24.8726 7.61661 25.1928 7 25.1753H2.5C1.7 25.1753 1.16667 24.0261 1 23.4516V11.6753Z" fill="#00D916" stroke="#00790C"/>
</svg>
