<svg width="30" height="27" viewBox="0 0 30 27" fill="none" xmlns="http://www.w3.org/2000/svg">
<path d="M15.4003 -0.0217492H15.4174C19.5141 0.11253 23.1933 1.56762 25.8179 3.82107C28.5035 6.11357 30.0953 9.23128 29.9952 12.6322C29.9275 14.6325 29.285 16.571 28.1446 18.2158C26.919 19.9848 25.2862 21.4334 23.3838 22.4394C21.2325 23.6153 18.8625 24.3366 16.4208 24.5586C14.185 24.7542 11.9337 24.4516 9.82894 23.6724L1.64038 26.1236L3.97439 20.2421C2.90892 19.3469 2.00757 18.2729 1.31079 17.0683C0.26929 15.2623 -0.169429 13.1713 0.058331 11.099C0.300321 9.04079 1.12154 7.09356 2.42652 5.48368C3.5212 4.12234 4.86826 2.98501 6.39385 2.13404C7.73722 1.37904 9.18054 0.817656 10.681 0.466537C12.2252 0.0981363 13.811 -0.0660274 15.3979 -0.0217492H15.4003ZM21.3037 10.2323C21.6795 10.2318 22.0469 10.3428 22.3596 10.5512C22.6723 10.7596 22.9161 11.0561 23.0603 11.4031C23.2044 11.7502 23.2424 12.1321 23.1694 12.5008C23.0963 12.8694 22.9156 13.2081 22.6501 13.4739C22.3845 13.7398 22.0461 13.921 21.6776 13.9945C21.3091 14.0679 20.927 14.0305 20.5798 13.8868C20.2326 13.7431 19.9358 13.4996 19.727 13.1872C19.5181 12.8748 19.4067 12.5075 19.4067 12.1317C19.4067 11.6284 19.6065 11.1456 19.9622 10.7895C20.3178 10.4333 20.8003 10.2329 21.3037 10.2323V10.2323ZM8.75715 10.2323C9.13283 10.2323 9.50006 10.3437 9.81242 10.5524C10.1248 10.7611 10.3682 11.0577 10.512 11.4048C10.6558 11.7519 10.6934 12.1338 10.6201 12.5023C10.5468 12.8707 10.3659 13.2092 10.1003 13.4748C9.83462 13.7404 9.49617 13.9213 9.12772 13.9946C8.75926 14.0679 8.37735 14.0303 8.03027 13.8865C7.6832 13.7428 7.38655 13.4993 7.17783 13.187C6.96912 12.8746 6.85772 12.5074 6.85772 12.1317C6.85837 11.6281 7.05869 11.1454 7.41477 10.7893C7.77084 10.4332 8.25359 10.2329 8.75715 10.2323V10.2323ZM15.0292 10.2323C15.405 10.2318 15.7724 10.3428 16.0851 10.5512C16.3978 10.7596 16.6416 11.0561 16.7858 11.4031C16.9299 11.7502 16.9679 12.1321 16.8949 12.5008C16.8219 12.8694 16.6411 13.2081 16.3756 13.4739C16.1101 13.7398 15.7716 13.921 15.4031 13.9945C15.0346 14.0679 14.6525 14.0305 14.3053 13.8868C13.9581 13.7431 13.6613 13.4996 13.4525 13.1872C13.2437 12.8748 13.1322 12.5075 13.1322 12.1317C13.1322 11.6284 13.332 11.1456 13.6877 10.7895C14.0434 10.4333 14.5259 10.2329 15.0292 10.2323ZM15.371 1.44311H15.3539C13.8959 1.40385 12.439 1.5557 11.0204 1.89478C9.6531 2.21399 8.33794 2.72526 7.11407 3.41335C5.75444 4.17383 4.55414 5.18928 3.57888 6.4041C2.4495 7.7947 1.7368 9.47657 1.52319 11.2552C1.33011 13.0191 1.7038 14.7986 2.5901 16.3358C3.29024 17.5323 4.2145 18.5826 5.31229 19.4291L5.74199 19.7685L4.1282 23.8335L9.88021 22.1025L10.1244 22.1953C12.0895 22.9612 14.2053 23.262 16.3061 23.0742C18.5467 22.8693 20.7209 22.2044 22.6929 21.1211C24.3811 20.236 25.8334 18.9603 26.9287 17.4003C27.9094 15.9852 28.4635 14.3186 28.5254 12.598C28.6109 9.6683 27.2046 6.95831 24.8633 4.94901C22.4731 2.89332 19.121 1.57006 15.3808 1.45776L15.371 1.44311Z" fill="white"/>
</svg>
