<svg width="25" height="30" viewBox="0 0 25 30" fill="none" xmlns="http://www.w3.org/2000/svg">
<path d="M8.90625 0C8.51719 0 8.20312 0.314063 8.20312 0.703125C8.20312 1.09219 8.51719 1.40625 8.90625 1.40625H15.9375C16.3266 1.40625 16.6406 1.09219 16.6406 0.703125C16.6406 0.314063 16.3266 0 15.9375 0H8.90625ZM3.04688 3.28125C1.36641 3.28125 0 4.64766 0 6.32812C0 8.00859 1.36641 9.375 3.04688 9.375H21.0938V24.1406C21.0938 26.3367 19.3055 28.125 17.1094 28.125H7.73438C5.53828 28.125 3.75 26.3367 3.75 24.1406V11.9531C3.75 11.5641 3.43594 11.25 3.04688 11.25C2.65781 11.25 2.34375 11.5641 2.34375 11.9531V24.1406C2.34375 27.1125 4.7625 29.5312 7.73438 29.5312H17.1094C20.0812 29.5312 22.5 27.1125 22.5 24.1406V9.29077C23.8406 8.97202 24.8438 7.76719 24.8438 6.32812C24.8438 4.64766 23.4773 3.28125 21.7969 3.28125H3.04688ZM3.04688 4.6875H21.7969C22.7016 4.6875 23.4375 5.42344 23.4375 6.32812C23.4375 7.23281 22.7016 7.96875 21.7969 7.96875H3.04688C2.14219 7.96875 1.40625 7.23281 1.40625 6.32812C1.40625 5.42344 2.14219 4.6875 3.04688 4.6875ZM9.14062 12.6562C8.75156 12.6562 8.4375 12.9703 8.4375 13.3594V24.1406C8.4375 24.5297 8.75156 24.8438 9.14062 24.8438C9.52969 24.8438 9.84375 24.5297 9.84375 24.1406V13.3594C9.84375 12.9703 9.52969 12.6562 9.14062 12.6562ZM15.7031 12.6562C15.3141 12.6562 15 12.9703 15 13.3594V24.1406C15 24.5297 15.3141 24.8438 15.7031 24.8438C16.0922 24.8438 16.4062 24.5297 16.4062 24.1406V13.3594C16.4062 12.9703 16.0922 12.6562 15.7031 12.6562Z" fill="#FA812F"/>
</svg>
