<svg width="19" height="21" viewBox="0 0 19 21" fill="none" xmlns="http://www.w3.org/2000/svg">
<g clip-path="url(#clip0_230_74)">
<path d="M7.81064 7.26884H6.91064V17.1688H7.81064V7.26884Z" fill="#4C4F57" stroke="#4C4F57" stroke-width="0.2"/>
<path d="M12.0104 7.26884H11.1104V17.1688H12.0104V7.26884Z" fill="#4C4F57" stroke="#4C4F57" stroke-width="0.2"/>
<path d="M17.5604 4.11885H13.5104V2.76885C13.5104 2.04885 12.8804 1.41885 12.1604 1.41885H6.76035C6.04035 1.41885 5.41035 2.04885 5.41035 2.76885V4.11885H1.36035V5.01885H2.71035L3.52035 19.0589C3.52035 19.7789 4.15035 20.3189 4.87035 20.3189H13.9604C14.6804 20.3189 15.3104 19.7789 15.3104 19.0589L16.1203 5.01885H17.5604V4.11885ZM6.31035 2.76885C6.31035 2.49885 6.49035 2.31885 6.76035 2.31885H12.1604C12.4304 2.31885 12.6104 2.49885 12.6104 2.76885V4.11885H6.31035V2.76885ZM14.5004 18.9689C14.5004 19.2389 14.3204 19.4189 14.0504 19.4189H4.87035C4.60035 19.4189 4.42035 19.2389 4.42035 18.9689L3.61035 5.01885H15.2204L14.5004 18.9689Z" fill="#4C4F57" stroke="#4C4F57" stroke-width="0.2"/>
</g>
<defs>
<clipPath id="clip0_230_74">
<rect width="18" height="20" fill="white" transform="translate(0.460449 0.968857)"/>
</clipPath>
</defs>
</svg>
